<svg width="54" height="43" fill="none" xmlns="http://www.w3.org/2000/svg"><path d="M24.6744 22.465c-.6526-1.4046-.0474-3.068 1.3451-3.7082 1.3894-.6389 3.0473-.016 3.6999 1.3886l13.7609 7.672-15.2573-3.8941c-1.3578.5231-2.9201-.1054-3.5486-1.4583z" fill="#030104"/><g filter="url(#filter0_d)"><path d="M10.7365 6.73144C15.0808 2.39058 20.8566 0 27 0c6.1435 0 11.9194 2.39058 16.2636 6.73144C47.6077 11.0723 50 16.8437 50 22.9826c0 3.9637-.9994 7.7731-2.8757 11.144h-4.2988l-3.1442-1.814 1.3886-2.4034 4.0429 2.3326c1.4283-2.7788 2.2352-5.9265 2.2352-9.2592 0-.5898-.0268-1.1735-.0763-1.7508l-4.8206.8493-.4822-2.7329 4.8773-.8593c-.8715-3.8451-2.8366-7.28-5.5502-9.96011l-3.3045 3.93541-2.1275-1.7838 3.3296-3.96504c-3.0532-2.29092-6.7698-3.74388-10.8051-4.01681v5.26327h-2.777V2.69855c-4.0353.27315-7.7519 1.72599-10.8052 4.01692l3.3297 3.96493-2.1274 1.7838-3.3046-3.93551C9.99049 11.2089 8.02544 14.6438 7.1539 18.4888l4.8772.8595-.4823 2.7327-4.82031-.8494c-.04944.5774-.07625 1.1609-.07625 1.7507 0 3.333.80655 6.4808 2.23508 9.2594l4.04298-2.3324 1.3885 2.4033-3.1441 1.8138H6.87572C4.99926 30.7555 4 26.9461 4 22.9823c-.00011-6.1387 2.3925-11.9102 6.7365-16.25086z" fill="#030104"/></g><defs><filter id="filter0_d" x="0" y="0" width="54" height="42.1266" filterUnits="userSpaceOnUse" color-interpolation-filters="sRGB"><feFlood flood-opacity="0" result="BackgroundImageFix"/><feColorMatrix in="SourceAlpha" values="0 0 0 0 0 0 0 0 0 0 0 0 0 0 0 0 0 0 127 0"/><feOffset dy="4"/><feGaussianBlur stdDeviation="2"/><feColorMatrix values="0 0 0 0 0 0 0 0 0 0 0 0 0 0 0 0 0 0 0.25 0"/><feBlend in2="BackgroundImageFix" result="effect1_dropShadow"/><feBlend in="SourceGraphic" in2="effect1_dropShadow" result="shape"/></filter></defs></svg>