<svg width="41" height="58" fill="none" xmlns="http://www.w3.org/2000/svg"><g filter="url(#filter0_d)" stroke="#000"><path fill-rule="evenodd" clip-rule="evenodd" d="M21.3113 15.508c.6934.931 1.9314 1.6137 3.9833 1.3389 3.6029-.4825 6.3909.5987 8.0636 2.6698 1.6316 2.0201 2.0061 4.7475 1.3036 7.1935-.7099 2.4717-2.5354 4.7372-5.4036 5.8728-2.864 1.134-6.5911 1.0769-11.0422-.7113-3.8666-1.5534-6.0902-1.3016-7.2868-.6014-1.16755.6831-1.85131 2.0909-1.92314 4.0825-.07117 1.973.48897 4.2205 1.45194 6.0371.9968 1.8804 2.2183 2.9347 3.2377 3.1395l-.5909 2.9412c-2.3399-.47-4.14661-2.5048-5.29737-4.6756-1.18458-2.2346-1.89141-5.0003-1.79942-7.5503.09131-2.5315 1.00081-5.1565 3.40617-6.5638 2.37622-1.3903 5.70512-1.2864 9.92012.407 3.9471 1.5857 6.8547 1.4837 8.8196.7058 1.9608-.7764 3.1586-2.2896 3.6245-3.9117.4732-1.6477.1759-3.3289-.754-4.4803-.8887-1.1004-2.5518-1.9536-5.3316-1.5814-2.987.4-5.3603-.6043-6.7874-2.5201-1.3762-1.8475-1.7117-4.3261-1.1712-6.6454.5458-2.34263 2.0042-4.63839 4.3874-6.1973 2.3948-1.56649 5.6262-2.32807 9.6224-1.78077l-.4071 2.97225c-3.3943-.46488-5.8737.20749-7.573 1.3191-1.711 1.11919-2.7301 2.74569-3.108 4.36752-.3834 1.6451-.089 3.1731.6554 4.1724z" fill="#000" stroke-width="3"/><path fill-rule="evenodd" clip-rule="evenodd" d="M31.5133 4.36101c-.46-.06301-.9066-.10681-1.3397-.13265l.0238-.39929c.4436.02646.9004.07129 1.3702.13564l-.0543.3963zm-4.0263-.05273c-.9476.12114-1.8108.34002-2.591.63682l-.1422-.37386c.8109-.30849 1.7049-.53476 2.6825-.65973l.0507.39677zm-4.9219 1.9139c-.74.55709-1.3562 1.20143-1.8507 1.89652l-.3259-.23189c.5179-.72793 1.1626-1.40201 1.936-1.9842l.2406.31957zM19.5383 10.492c-.2709.8769-.3834 1.7681-.3417 2.6178l-.3995.0196c-.0441-.8981.075-1.8358.359-2.7554l.3822.118zm.3234 5.1473c.4089.7721 1.0015 1.4199 1.7734 1.8715l-.202.3452c-.841-.492-1.4839-1.1968-1.9249-2.0295l.3535-.1872zm5.6054 2.4961c.5482-.0734 1.0695-.1065 1.5639-.1027l-.0031.4c-.4744-.0037-.9769.028-1.5077.0991-.4923.066-.9596.088-1.4013.0698l.0165-.3996c.4168.0171.8608-.0036 1.3317-.0666zm4.6216.4976c1.0396.4504 1.855 1.1285 2.4459 1.9461l-.3242.2343c-.549-.7596-1.3075-1.3917-2.2807-1.8133l.159-.3671zm3.5624 4.867c.1221 1.0216.0152 2.0879-.3171 3.1067l-.3803-.124c.3148-.9652.4152-1.973.3002-2.9352l.3972-.0475zm-18.9575 6.0255c-1.0511-.1495-1.9616-.1343-2.7445.0129l-.0739-.3932c.8333-.1566 1.7885-.1702 2.8747-.0157l-.0563.396zm17.0801-.2146c-.6654.7417-1.5013 1.3795-2.505 1.8519l-.1703-.362c.955-.4494 1.7476-1.0548 2.3775-1.757l.2978.2671zm-13.0731 1.3545c-.455-.1828-.8933-.3437-1.3155-.4839l.126-.3796c.4305.1429.8765.3067 1.3386.4923.4884.1962.9645.369 1.4282.5196l-.1236.3805c-.4726-.1536-.9572-.3295-1.4537-.5289zm-9.16116.0172c-.66295.5946-1.13259 1.3719-1.43162 2.2674l-.37941-.1267c.31685-.9488.82039-1.7895 1.54395-2.4385l.26708.2978zm16.72906 1.2966c-.9488.1008-1.985.0836-3.1075-.0748l.0559-.396c1.0927.1541 2.0959.1701 3.0094.073l.0422.3978zM7.70004 35.6573c-.00286.8977.10436 1.83.30515 2.7508l-.39082.0853c-.20631-.9462-.31729-1.9076-.31432-2.8373l.39999.0012zm1.15376 5.3913c.38137.8823.84367 1.6994 1.3664 2.4009l-.32071.239c-.54361-.7295-1.02081-1.5742-1.41285-2.4811l.36716-.1588zm3.3455 4.2658c.4024.238.8175.4046 1.2403.4895l-.0788.3922c-.4726-.0949-.9295-.2798-1.3651-.5373l.2036-.3444z" fill="#fff" stroke-width=".4" stroke-dasharray="3 3"/><path d="M17 46.5c0 1.6569-1.3431 3-3 3s-3-1.3431-3-3 1.3431-3 3-3 3 1.3431 3 3z" fill="#C4C4C4"/><path d="M15 46.5c0 .5523-.4477 1-1 1s-1-.4477-1-1 .4477-1 1-1 1 .4477 1 1z" fill="#fff"/><path d="M36 3.5c0 1.65685-1.3431 3-3 3s-3-1.34315-3-3 1.3431-3 3-3 3 1.34315 3 3z" fill="#C4C4C4"/><path d="M34 3.5c0 .55228-.4477 1-1 1s-1-.44772-1-1 .4477-1 1-1 1 .44772 1 1z" fill="#fff"/></g><defs><filter id="filter0_d" x=".5" y="0" width="40" height="58" filterUnits="userSpaceOnUse" color-interpolation-filters="sRGB"><feFlood flood-opacity="0" result="BackgroundImageFix"/><feColorMatrix in="SourceAlpha" values="0 0 0 0 0 0 0 0 0 0 0 0 0 0 0 0 0 0 127 0"/><feOffset dy="4"/><feGaussianBlur stdDeviation="2"/><feColorMatrix values="0 0 0 0 0 0 0 0 0 0 0 0 0 0 0 0 0 0 0.25 0"/><feBlend in2="BackgroundImageFix" result="effect1_dropShadow"/><feBlend in="SourceGraphic" in2="effect1_dropShadow" result="shape"/></filter></defs></svg>